<?xml version="1.0" standalone="no"?>
<!DOCTYPE svg PUBLIC "-//W3C//DTD SVG 20010904//EN"
 "http://www.w3.org/TR/2001/REC-SVG-20010904/DTD/svg10.dtd">
<svg version="1.0" xmlns="http://www.w3.org/2000/svg"
 width="839.000000pt" height="214.000000pt" viewBox="0 0 839.000000 214.000000"
 preserveAspectRatio="xMidYMid meet">

<g transform="translate(0.000000,214.000000) scale(0.100000,-0.100000)"
fill="#000000" stroke="none">
<path d="M4520 2134 c-179 -29 -281 -89 -343 -202 -97 -179 -68 -412 68 -541
206 -195 600 -148 728 86 53 99 69 225 42 341 -36 152 -124 246 -273 292 -59
18 -178 31 -222 24z m180 -217 c30 -16 54 -39 75 -72 28 -45 30 -56 30 -139 0
-75 -4 -98 -22 -133 -51 -95 -172 -137 -298 -102 -52 15 -119 82 -134 134 -26
95 -5 221 47 278 61 67 205 84 302 34z"/>
<path d="M7060 2130 c-217 -28 -332 -173 -278 -353 29 -98 109 -136 332 -162
161 -18 202 -31 212 -70 14 -54 -48 -85 -170 -85 -108 0 -158 18 -181 66 l-16
34 -99 0 c-114 0 -112 3 -84 -89 30 -102 118 -168 255 -190 184 -30 372 13
447 104 68 84 70 215 4 304 -39 53 -108 78 -262 96 -170 20 -217 32 -237 61
-35 54 20 95 138 102 95 6 159 -18 180 -67 l14 -31 102 0 c115 0 112 -3 88 76
-31 105 -140 184 -280 204 -77 11 -85 11 -165 0z"/>
<path d="M363 1883 l-363 -227 0 -177 c0 -98 3 -180 8 -182 4 -3 173 98 375
224 l368 229 192 -2 c166 -3 192 -5 195 -19 2 -11 -52 -49 -187 -129 -122 -73
-193 -122 -200 -137 -6 -13 -11 -57 -11 -98 l0 -75 230 0 230 0 -2 408 -3 407
-235 2 -235 2 -362 -226z"/>
<path d="M1718 1703 l-156 -408 106 -3 c119 -3 111 -8 143 86 l21 62 176 0
177 0 25 -72 25 -73 114 -3 c105 -2 113 -1 107 15 -4 10 -75 195 -159 411
l-152 392 -135 0 -135 0 -157 -407z m345 85 c25 -73 49 -141 52 -150 7 -17 -2
-18 -105 -18 -85 0 -111 3 -108 13 3 6 27 74 53 150 27 75 52 137 55 137 4 0
27 -60 53 -132z"/>
<path d="M2483 1813 c3 -219 7 -309 18 -338 7 -23 37 -64 69 -97 47 -47 68
-60 126 -78 244 -76 497 9 549 184 12 39 15 113 15 338 l0 288 -104 0 -105 0
-3 -282 c-3 -316 -3 -314 -74 -348 -53 -26 -144 -26 -201 -1 -71 33 -73 42
-73 356 l0 275 -111 0 -111 0 5 -297z"/>
<path d="M3350 2020 l0 -90 135 0 135 0 0 -320 0 -320 105 0 105 0 0 320 0
320 130 0 130 0 0 90 0 90 -370 0 -370 0 0 -90z"/>
<path d="M5140 1700 l0 -412 258 4 c289 5 328 12 399 72 22 20 49 57 61 83 47
110 53 343 12 477 -17 52 -29 73 -69 108 -75 68 -91 71 -393 75 l-268 4 0
-411z m500 193 c34 -38 45 -105 38 -227 -6 -95 -32 -155 -75 -176 -16 -8 -74
-15 -140 -18 l-113 -4 0 232 0 232 131 -4 131 -3 28 -32z"/>
<path d="M6010 1700 l0 -410 330 0 330 0 0 90 0 90 -225 0 -225 0 0 75 0 75
180 0 180 0 0 90 0 90 -180 0 -180 0 0 65 0 65 225 0 225 0 0 90 0 90 -330 0
-330 0 0 -410z"/>
<path d="M7632 1703 l3 -408 105 0 105 0 5 148 5 148 135 -150 135 -151 133 0
134 0 -39 44 c-21 24 -107 115 -190 202 l-151 159 37 41 c20 22 105 116 189
207 l154 167 -129 0 -128 -1 -140 -158 -140 -158 -3 159 -2 158 -110 0 -110 0
2 -407z"/>
<path d="M4442 908 c-19 -19 -14 -56 9 -68 16 -9 26 -8 45 5 39 26 26 75 -21
75 -12 0 -26 -5 -33 -12z"/>
<path d="M3482 693 l3 -218 38 -3 37 -3 0 120 c0 113 1 121 22 135 27 19 62
21 76 3 7 -7 13 -66 14 -133 l3 -119 35 0 35 0 0 132 c0 125 -1 133 -24 157
-32 33 -78 42 -124 22 l-37 -15 0 70 0 69 -40 0 -40 0 2 -217z"/>
<path d="M5380 844 c0 -59 -2 -65 -17 -59 -102 39 -183 -29 -183 -153 0 -100
47 -162 124 -162 23 0 51 7 63 15 19 13 22 13 27 -1 4 -10 16 -14 33 -12 l28
3 3 218 2 217 -40 0 -40 0 0 -66z m-19 -114 c16 -9 19 -22 19 -95 0 -93 -8
-105 -69 -105 -40 0 -51 23 -51 104 0 53 4 70 20 86 22 22 51 26 81 10z"/>
<path d="M7030 707 c0 -230 2 -237 73 -237 33 0 37 3 37 25 0 14 -8 29 -20 35
-19 10 -20 21 -20 195 l0 185 -35 0 -35 0 0 -203z"/>
<path d="M2595 773 c-20 -65 -47 -153 -61 -196 -32 -103 -31 -107 11 -107 33
0 35 2 51 55 l16 56 71 -3 70 -3 17 -50 c16 -47 19 -50 53 -53 20 -2 37 1 37
6 0 5 -29 99 -64 208 l-63 199 -51 3 -51 3 -36 -118z m110 -30 c10 -38 20 -74
23 -80 3 -9 -10 -13 -46 -13 l-50 0 21 80 c12 44 24 80 28 80 3 0 14 -30 24
-67z"/>
<path d="M5704 877 c-2 -7 -3 -100 -2 -207 l3 -195 90 1 c104 1 158 22 190 77
20 34 32 152 21 211 -10 53 -57 101 -110 115 -63 16 -185 15 -192 -2z m203
-81 c20 -23 23 -38 23 -107 0 -83 -15 -131 -45 -143 -9 -3 -37 -6 -61 -6 l-44
0 0 146 0 147 52 -5 c40 -4 57 -11 75 -32z"/>
<path d="M3287 863 c-4 -3 -7 -21 -7 -40 0 -29 -3 -33 -25 -33 -21 0 -25 -5
-25 -30 0 -23 4 -30 20 -30 18 0 20 -7 20 -89 0 -141 18 -171 103 -171 52 0
56 3 50 35 -4 18 -12 25 -37 27 l-31 3 -3 98 -3 97 36 0 c32 0 35 2 35 30 0
28 -3 30 -35 30 -34 0 -35 1 -35 40 0 37 -2 40 -28 40 -16 0 -32 -3 -35 -7z"/>
<path d="M3906 790 c-62 -19 -96 -73 -96 -155 0 -117 50 -169 157 -163 52 3
68 9 92 32 51 49 62 154 24 229 -16 31 -83 67 -123 66 -14 0 -38 -5 -54 -9z
m94 -68 c38 -31 40 -140 4 -176 -20 -21 -73 -20 -96 1 -27 24 -26 145 2 173
25 25 61 26 90 2z"/>
<path d="M4290 793 c-8 -3 -25 -14 -37 -25 -21 -20 -21 -20 -28 2 -5 16 -13
20 -33 18 l-27 -3 0 -155 0 -155 38 -3 37 -3 0 101 c0 94 2 103 25 125 13 14
35 25 48 25 14 0 28 7 31 16 18 48 -7 74 -54 57z"/>
<path d="M4947 790 c-40 -12 -58 -29 -78 -75 -34 -75 -20 -164 35 -214 36 -34
127 -41 179 -14 36 18 36 19 21 41 -12 17 -19 20 -34 12 -10 -5 -39 -10 -63
-10 -49 0 -77 21 -77 58 0 21 4 22 100 22 l100 0 0 35 c0 48 -27 111 -55 129
-30 20 -92 28 -128 16z m93 -70 c11 -11 20 -29 20 -40 0 -18 -7 -20 -65 -20
-58 0 -65 2 -65 20 0 28 35 60 65 60 14 0 34 -9 45 -20z"/>
<path d="M6143 781 c-54 -25 -76 -67 -77 -146 0 -72 17 -111 63 -142 40 -27
113 -31 166 -9 39 16 41 22 21 49 -12 15 -18 16 -35 8 -11 -6 -40 -11 -65 -11
-47 0 -76 23 -76 62 0 16 11 18 100 18 l100 0 0 40 c0 117 -94 179 -197 131z
m107 -61 c11 -11 20 -29 20 -40 0 -18 -7 -20 -65 -20 -58 0 -65 2 -65 20 0 28
35 60 65 60 14 0 34 -9 45 -20z"/>
<path d="M6771 783 c-55 -29 -75 -64 -79 -141 -2 -52 1 -75 16 -101 35 -64
128 -90 207 -57 38 16 40 19 25 46 -9 16 -15 18 -36 10 -68 -26 -134 -2 -134
48 0 21 4 22 101 22 l102 0 -6 51 c-4 28 -13 62 -22 75 -37 56 -116 78 -174
47z m95 -51 c13 -8 34 -46 34 -61 0 -7 -26 -11 -65 -11 -60 0 -65 2 -65 22 0
44 59 75 96 50z"/>
<path d="M7254 781 c-53 -24 -74 -68 -74 -154 0 -105 47 -157 145 -157 103 0
149 57 143 176 -3 61 -7 77 -28 100 -50 54 -116 67 -186 35z m113 -56 c39 -27
43 -144 6 -180 -19 -19 -77 -19 -96 0 -37 36 -33 153 6 180 12 8 31 15 42 15
11 0 30 -7 42 -15z"/>
<path d="M7640 784 c-22 -10 -36 -11 -38 -4 -2 5 -17 10 -33 10 l-29 0 0 -215
0 -215 35 0 35 0 0 65 c0 64 1 65 21 54 30 -15 105 -6 131 17 47 42 64 157 34
229 -26 60 -94 87 -156 59z m72 -61 c14 -13 18 -31 18 -86 0 -82 -15 -107 -65
-107 -47 0 -55 15 -55 101 0 69 3 80 22 93 29 21 57 20 80 -1z"/>
<path d="M7950 787 c-94 -33 -120 -193 -46 -275 29 -31 40 -36 90 -40 41 -3
68 0 96 13 36 16 38 19 27 42 -7 17 -15 22 -26 17 -9 -4 -39 -9 -67 -12 -45
-3 -54 -1 -68 19 -9 13 -16 31 -16 41 0 16 11 18 100 18 l100 0 0 35 c0 48
-27 111 -55 129 -33 22 -94 28 -135 13z m100 -67 c11 -11 20 -29 20 -40 0 -18
-7 -20 -65 -20 -58 0 -65 2 -65 20 0 28 35 60 65 60 14 0 34 -9 45 -20z"/>
<path d="M8320 789 c-14 -5 -31 -17 -38 -27 -12 -15 -13 -15 -18 6 -5 16 -14
22 -35 22 l-30 0 3 -157 3 -158 35 0 35 0 5 103 c5 94 7 106 29 123 13 10 34
19 46 19 18 0 25 7 30 31 10 45 -13 58 -65 38z"/>
<path d="M2910 656 l0 -134 31 -26 c35 -30 84 -34 129 -11 25 13 29 13 34 0 3
-9 18 -15 36 -15 l30 0 0 161 0 160 -37 -3 -38 -3 -3 -115 c-3 -125 -9 -140
-62 -140 -45 0 -50 15 -50 142 l0 118 -35 0 -35 0 0 -134z"/>
<path d="M4390 760 c0 -25 4 -30 25 -30 l25 0 0 -130 0 -130 35 0 35 0 0 160
0 160 -60 0 -60 0 0 -30z"/>
<path d="M4580 761 l0 -30 69 -3 70 -3 -75 -100 c-55 -73 -74 -106 -72 -125 3
-25 3 -25 121 -28 l117 -3 0 31 0 30 -75 0 c-41 0 -75 2 -75 5 0 3 34 51 76
106 48 66 74 109 72 123 -3 20 -10 21 -115 24 l-113 3 0 -30z"/>
<path d="M6372 778 c3 -7 26 -79 52 -160 l47 -148 43 0 44 0 51 153 c28 83 51
156 51 160 0 5 -16 7 -36 5 l-37 -3 -32 -113 c-18 -62 -35 -115 -37 -118 -3
-2 -20 50 -38 116 l-32 120 -40 0 c-28 0 -39 -4 -36 -12z"/>
<path d="M2 38 l3 -33 4193 -3 4192 -2 0 35 0 35 -4196 0 -4195 0 3 -32z"/>
</g>
</svg>
