<?xml version="1.0" encoding="UTF-8" standalone="no"?>
<!-- Created with Inkscape (http://www.inkscape.org/) -->

<svg
   version="1.1"
   id="svg2"
   width="268.25333"
   height="68.053329"
   viewBox="0 0 268.25333 68.053329"
   sodipodi:docname="autodesk-authorized-developer-logo-rgb-white.eps"
   xmlns:inkscape="http://www.inkscape.org/namespaces/inkscape"
   xmlns:sodipodi="http://sodipodi.sourceforge.net/DTD/sodipodi-0.dtd"
   xmlns="http://www.w3.org/2000/svg"
   xmlns:svg="http://www.w3.org/2000/svg">
  <defs
     id="defs6" />
  <sodipodi:namedview
     id="namedview4"
     pagecolor="#ffffff"
     bordercolor="#000000"
     borderopacity="0.25"
     inkscape:showpageshadow="2"
     inkscape:pageopacity="0.0"
     inkscape:pagecheckerboard="0"
     inkscape:deskcolor="#d1d1d1" />
  <g
     id="g8"
     inkscape:groupmode="layer"
     inkscape:label="ink_ext_XXXXXX"
     transform="matrix(1.3333333,0,0,-1.3333333,0,68.053333)">
    <g
       id="g10"
       transform="scale(0.1)">
      <path
         d="M 1.53125,308.867 177.148,418.105 h 91.098 c 2.805,0 5.324,-2.242 5.324,-5.328 0,-2.519 -1.121,-3.644 -2.519,-4.484 L 184.793,356.59 c -5.605,-3.363 -7.566,-10.09 -7.566,-15.137 l -0.09,-32.586 H 286.746 V 498.27 c 0,3.644 -2.805,6.726 -7.008,6.726 H 175.188 L 0,396.242 v -87.375 h 1.53125"
         style="fill:#ffffff;fill-opacity:1;fill-rule:nonzero;stroke:none"
         id="path12" />
      <path
         d="m 1441.24,308.879 h 157.87 v 42.41 h -107.86 v 35.547 h 86.78 v 42.652 h -86.78 v 33.094 h 107.86 v 42.41 H 1441.24 V 308.879"
         style="fill:#ffffff;fill-opacity:1;fill-rule:nonzero;stroke:none"
         id="path14" />
      <path
         d="m 453.398,387.324 27.465,76.879 27.012,-76.879 z m -4.492,117.668 -75.258,-196.113 h 51.723 l 13.137,36.769 h 84.012 l 12.921,-36.769 h 53.442 l -76.238,196.113 h -63.739"
         style="fill:#ffffff;fill-opacity:1;fill-rule:nonzero;stroke:none"
         id="path16" />
      <path
         d="m 803.383,462.582 h 63.246 V 308.879 h 50.008 v 153.703 h 63 v 42.41 H 803.383 v -42.41"
         style="fill:#ffffff;fill-opacity:1;fill-rule:nonzero;stroke:none"
         id="path18" />
      <path
         d="m 730.574,383.891 c 0,-25.493 -15.687,-35.789 -42.41,-35.789 -25.984,0 -42.898,10.785 -42.898,35.789 V 504.992 H 595.258 V 378.254 c 0,-56.625 50.496,-74.277 92.906,-74.277 42.164,0 92.418,17.652 92.418,74.277 V 504.992 H 730.574 V 383.891"
         style="fill:#ffffff;fill-opacity:1;fill-rule:nonzero;stroke:none"
         id="path20" />
      <path
         d="m 2011.93,504.992 h -59.57 l -71.33,-79.672 v 79.672 h -50.01 l 0.24,-196.113 h 49.77 v 74.523 l 67.66,-74.523 h 63.24 l -91.19,96.832 91.19,99.281"
         style="fill:#ffffff;fill-opacity:1;fill-rule:nonzero;stroke:none"
         id="path22" />
      <path
         d="m 1321.61,351.289 h -39.71 v 111.293 h 39.71 c 31.38,0 40.7,-8.578 40.7,-54.176 0,-41.676 -10.55,-57.117 -40.7,-57.117 z m 1.96,153.703 h -91.68 V 308.879 h 91.68 c 70.36,0 89.72,26.23 89.72,99.527 0,68.887 -18.63,96.586 -89.72,96.586"
         style="fill:#ffffff;fill-opacity:1;fill-rule:nonzero;stroke:none"
         id="path24" />
      <path
         d="m 1750.37,424.34 -45.6,5.148 c -26.72,2.942 -33.34,9.563 -33.34,18.633 0,10.051 13.73,19.121 40.45,19.121 25.74,0 39.22,-9.562 41.67,-24.023 h 49.03 c -2.45,41.426 -37.26,67.168 -88.01,67.168 -60.3,0 -90.7,-24.024 -90.7,-66.434 0,-34.566 20.1,-50.746 61.78,-55.156 l 46.33,-4.902 c 17.65,-1.961 25.74,-8.829 25.74,-17.653 0,-10.051 -11.77,-19.121 -40.2,-19.121 -32.85,0 -46.09,8.336 -48.3,25.004 h -48.04 c 2.2,-45.105 31.62,-68.148 94.62,-68.148 57.61,0 89.72,25.25 89.72,63.246 0,33.093 -19.12,52.949 -55.15,57.117"
         style="fill:#ffffff;fill-opacity:1;fill-rule:nonzero;stroke:none"
         id="path26" />
      <path
         d="m 1096.08,348.102 c -37.02,0 -57.36,22.554 -57.36,59.324 0,36.035 20.34,58.836 57.36,58.836 37.26,0 57.36,-22.801 57.36,-58.836 0,-36.77 -20.1,-59.324 -57.36,-59.324 z m 0,162.285 c -71.33,0 -108.35,-43.883 -108.35,-102.961 0,-59.324 37.02,-103.449 108.35,-103.449 71.58,0 108.6,44.125 108.6,103.449 0,59.078 -37.02,102.961 -108.6,102.961"
         style="fill:#ffffff;fill-opacity:1;fill-rule:nonzero;stroke:none"
         id="path28" />
      <path
         d="m 628.914,152.691 h 25.774 l -13.028,45.805 z m 29.973,-14.144 h -33.899 l -7.422,-25.777 h -17.793 l 29.981,98.05 h 23.945 l 31.524,-98.05 h -18.211 l -8.125,25.777"
         style="fill:#ffffff;fill-opacity:1;fill-rule:nonzero;stroke:none"
         id="path30" />
      <path
         d="M 758.711,187.289 V 112.77 h -14.707 l -1.262,8.265 c -5.742,-6.305 -13.301,-10.086 -22.41,-10.086 -13.164,0 -23.672,8.684 -23.672,22.688 v 53.652 h 17.371 v -52.805 c 0,-6.726 3.645,-10.507 10.508,-10.507 6.301,0 12.461,3.5 16.809,9.523 v 53.789 h 17.363"
         style="fill:#ffffff;fill-opacity:1;fill-rule:nonzero;stroke:none"
         id="path32" />
      <path
         d="m 820.438,112.77 c -3.36,-0.985 -8.399,-1.821 -13.028,-1.821 -14.285,0 -22.547,6.301 -22.547,20.313 v 43.144 h -11.347 v 12.883 h 11.765 l 1.399,18.352 h 15.547 v -18.352 h 16.113 v -12.883 h -16.113 v -42.164 c 0,-5.465 2.949,-7.988 9.109,-7.988 2.656,0 5.039,0.281 7.285,0.703 l 1.817,-12.187"
         style="fill:#ffffff;fill-opacity:1;fill-rule:nonzero;stroke:none"
         id="path34" />
      <path
         d="M 897.598,164.316 V 112.77 h -17.364 v 50.144 c 0,9.387 -4.629,13.172 -11.769,13.172 -6.727,0 -11.914,-3.504 -16.113,-9.527 V 112.77 h -17.364 v 103.656 h 17.364 v -35.582 c 5.05,5.605 11.769,8.402 20.734,8.402 13.867,0 24.512,-8.82 24.512,-24.93"
         style="fill:#ffffff;fill-opacity:1;fill-rule:nonzero;stroke:none"
         id="path36" />
      <path
         d="m 930.332,154.23 v -7.843 c 0,-14.707 6.023,-22.41 17.508,-22.41 11.621,0 17.93,7.703 17.93,22.41 v 7.843 c 0,14.29 -6.309,21.856 -17.93,21.856 -11.485,0 -17.508,-7.566 -17.508,-21.856 z m 52.801,-0.281 v -7.562 c 0,-20.867 -12.324,-35.438 -35.293,-35.438 -22.832,0 -34.883,14.571 -34.883,35.438 v 7.562 c 0,20.457 12.051,35.297 34.883,35.297 22.969,0 35.293,-14.84 35.293,-35.297"
         style="fill:#ffffff;fill-opacity:1;fill-rule:nonzero;stroke:none"
         id="path38" />
      <path
         d="m 1042.9,187.57 -3.09,-16.109 c -1.39,0.277 -2.94,0.418 -4.48,0.418 -8.4,0 -15.4,-3.641 -19.61,-14.848 V 112.77 h -17.361 v 74.519 h 12.611 l 2.79,-11.766 c 4.34,9.665 12.47,13.446 20.17,13.446 4.07,0 6.87,-0.696 8.97,-1.399"
         style="fill:#ffffff;fill-opacity:1;fill-rule:nonzero;stroke:none"
         id="path40" />
      <path
         d="m 1061.5,209.281 c 0,5.887 4.76,10.504 10.5,10.504 5.89,0 10.51,-4.617 10.51,-10.504 0,-5.746 -4.62,-10.363 -10.51,-10.363 -5.74,0 -10.5,4.617 -10.5,10.363 z m 19.89,-21.992 V 112.77 h -17.37 v 61.636 h -11.21 v 12.883 h 28.58"
         style="fill:#ffffff;fill-opacity:1;fill-rule:nonzero;stroke:none"
         id="path42" />
      <path
         d="m 1151.27,175.102 -36.28,-49.028 h 37.26 V 112.77 h -55.89 v 12.605 l 36.28,48.746 h -34.47 v 13.168 h 53.1 v -12.187"
         style="fill:#ffffff;fill-opacity:1;fill-rule:nonzero;stroke:none"
         id="path44" />
      <path
         d="m 1213.43,156.613 c 0,12.883 -5.75,19.891 -16.54,19.891 -10.64,0 -16.25,-7.008 -16.52,-20.59 h 33.06 z m 14.99,-12.047 h -48.05 c 0.27,-14.289 6.87,-20.589 19.75,-20.589 8.12,0 14.15,2.937 19.89,6.16 l 6.16,-10.367 c -6.3,-4.758 -16.39,-8.821 -27.18,-8.821 -22.68,0 -35.57,14.989 -35.57,35.16 v 7.7 c 0,20.171 12.6,35.437 33.34,35.437 20.31,0 32.21,-12.605 32.21,-36.277 0,-3.082 -0.28,-6.16 -0.55,-8.403"
         style="fill:#ffffff;fill-opacity:1;fill-rule:nonzero;stroke:none"
         id="path46" />
      <path
         d="m 1290,132.66 v 37.262 c -3.08,3.359 -8.26,6.164 -14.71,6.164 -9.94,0 -15.96,-7.566 -15.96,-21.715 v -8.547 c 0,-14.847 5.88,-21.847 15.27,-21.847 6.85,0 11.48,3.359 15.4,8.683 z m 17.37,83.766 V 112.77 h -13.58 l -1.83,8.125 c -4.9,-6.028 -11.35,-9.946 -20.45,-9.946 -17.37,0 -29.55,13.867 -29.55,35.16 v 7.84 c 0,20.457 12.33,35.297 30.39,35.297 7.29,0 12.89,-2.238 17.65,-6.578 v 33.758 h 17.37"
         style="fill:#ffffff;fill-opacity:1;fill-rule:nonzero;stroke:none"
         id="path48" />
      <path
         d="m 1422.44,172.023 c 0,15.965 -7.56,25.215 -23.1,25.215 h -13.6 v -70.879 h 11.08 c 17.08,0 25.62,8.965 25.62,27.59 z m 17.66,-0.421 V 154.23 c 0,-25.496 -15.13,-41.46 -43.43,-41.46 H 1380 1368.09 v 98.05 h 17.65 14.43 c 26.62,0 39.93,-15.687 39.93,-39.218"
         style="fill:#ffffff;fill-opacity:1;fill-rule:nonzero;stroke:none"
         id="path50" />
      <path
         d="m 1504.48,156.613 c 0,12.883 -5.74,19.891 -16.53,19.891 -10.65,0 -16.25,-7.008 -16.53,-20.59 h 33.06 z m 14.99,-12.047 h -48.05 c 0.28,-14.289 6.87,-20.589 19.75,-20.589 8.13,0 14.15,2.937 19.89,6.16 l 6.17,-10.367 c -6.3,-4.758 -16.39,-8.821 -27.18,-8.821 -22.69,0 -35.58,14.989 -35.58,35.16 v 7.7 c 0,20.171 12.61,35.437 33.34,35.437 20.31,0 32.22,-12.605 32.22,-36.277 0,-3.082 -0.28,-6.16 -0.56,-8.403"
         style="fill:#ffffff;fill-opacity:1;fill-rule:nonzero;stroke:none"
         id="path52" />
      <path
         d="m 1572.94,112.77 h -21.44 l -24.23,74.519 h 18.07 l 17.23,-60.652 17.22,60.652 h 17.38 l -24.23,-74.519"
         style="fill:#ffffff;fill-opacity:1;fill-rule:nonzero;stroke:none"
         id="path54" />
      <path
         d="m 1654.41,156.613 c 0,12.883 -5.74,19.891 -16.53,19.891 -10.64,0 -16.25,-7.008 -16.52,-20.59 h 33.05 z m 14.99,-12.047 h -48.04 c 0.27,-14.289 6.86,-20.589 19.74,-20.589 8.13,0 14.15,2.937 19.9,6.16 l 6.16,-10.367 c -6.3,-4.758 -16.39,-8.821 -27.18,-8.821 -22.69,0 -35.58,14.989 -35.58,35.16 v 7.7 c 0,20.171 12.61,35.437 33.34,35.437 20.32,0 32.22,-12.605 32.22,-36.277 0,-3.082 -0.28,-6.16 -0.56,-8.403"
         style="fill:#ffffff;fill-opacity:1;fill-rule:nonzero;stroke:none"
         id="path56" />
      <path
         d="m 1702.56,130.137 c 0,-4.063 1.26,-5.742 5.04,-5.742 0.84,0 1.82,0.14 2.94,0.277 l 1.82,-11.902 c -2.8,-0.985 -6.02,-1.821 -9.95,-1.821 -10.36,0 -17.23,5.606 -17.23,16.668 v 88.809 h 17.38 v -86.289"
         style="fill:#ffffff;fill-opacity:1;fill-rule:nonzero;stroke:none"
         id="path58" />
      <path
         d="m 1738.68,154.23 v -7.843 c 0,-14.707 6.03,-22.41 17.51,-22.41 11.62,0 17.93,7.703 17.93,22.41 v 7.843 c 0,14.29 -6.31,21.856 -17.93,21.856 -11.48,0 -17.51,-7.566 -17.51,-21.856 z m 52.8,-0.281 v -7.562 c 0,-20.867 -12.32,-35.438 -35.29,-35.438 -22.83,0 -34.88,14.571 -34.88,35.438 v 7.562 c 0,20.457 12.05,35.297 34.88,35.297 22.97,0 35.29,-14.84 35.29,-35.297"
         style="fill:#ffffff;fill-opacity:1;fill-rule:nonzero;stroke:none"
         id="path60" />
      <path
         d="m 1855.17,154.512 c 0,14.429 -5.45,21.574 -14.7,21.574 -6.3,0 -11.77,-2.945 -15.55,-7.848 v -38.941 c 4.21,-3.5 8.68,-5.32 14.15,-5.32 9.94,0 16.1,7.421 16.1,21.992 z m 17.38,-0.563 v -7.422 c 0,-20.871 -13.17,-35.578 -30.4,-35.578 -6.72,0 -12.33,2.098 -17.23,6.024 V 84.7578 h -17.36 V 187.289 h 14.84 l 0.98,-7.141 c 5.05,5.743 12.05,9.098 21.01,9.098 16.54,0 28.16,-13.863 28.16,-35.297"
         style="fill:#ffffff;fill-opacity:1;fill-rule:nonzero;stroke:none"
         id="path62" />
      <path
         d="m 1935.91,156.613 c 0,12.883 -5.74,19.891 -16.54,19.891 -10.64,0 -16.25,-7.008 -16.52,-20.59 h 33.06 z m 14.99,-12.047 h -48.05 c 0.27,-14.289 6.87,-20.589 19.75,-20.589 8.12,0 14.15,2.937 19.89,6.16 l 6.16,-10.367 c -6.3,-4.758 -16.39,-8.821 -27.18,-8.821 -22.68,0 -35.57,14.989 -35.57,35.16 v 7.7 c 0,20.171 12.6,35.437 33.34,35.437 20.31,0 32.21,-12.605 32.21,-36.277 0,-3.082 -0.28,-6.16 -0.55,-8.403"
         style="fill:#ffffff;fill-opacity:1;fill-rule:nonzero;stroke:none"
         id="path64" />
      <path
         d="m 2011.93,187.57 -3.08,-16.109 c -1.4,0.277 -2.94,0.418 -4.49,0.418 -8.39,0 -15.41,-3.641 -19.61,-14.848 V 112.77 h -17.36 v 74.519 h 12.6 l 2.8,-11.766 c 4.35,9.665 12.47,13.446 20.18,13.446 4.06,0 6.86,-0.696 8.96,-1.399"
         style="fill:#ffffff;fill-opacity:1;fill-rule:nonzero;stroke:none"
         id="path66" />
      <path
         d="M 2011.93,0 H 0 V 14.707 H 2011.93 V 0"
         style="fill:#ffffff;fill-opacity:1;fill-rule:nonzero;stroke:none"
         id="path68" />
    </g>
  </g>
</svg>
